<?xml version="1.0" encoding="utf-8"?>
<!-- Generator: Adobe Illustrator 25.0.0, SVG Export Plug-In . SVG Version: 6.00 Build 0)  -->
<svg version="1.1" id="Capa_1" xmlns="http://www.w3.org/2000/svg" xmlns:xlink="http://www.w3.org/1999/xlink" x="0px" y="0px"
	 viewBox="0 0 407.7 363" style="enable-background:new 0 0 407.7 363;" xml:space="preserve">
<style type="text/css">
	.st0{fill:#E4552B;}
	.st1{fill:#EF7633;}
</style>
<g id="Capa_2_1_">
	<g id="Capa_1-2">
		<path class="st0" d="M125.8,363c-2.7,0.2-4.3-0.9-4.8-3.3c-1.3-6.4-1.8-12.9-1.5-19.4c0.4-6,0.6-9.8,0.7-11.2
			c1-14,3-31.1,6.2-51.4c0.3-1.6,0.4-2.9,0.5-3.7c0-0.5,0-0.8-0.2-0.8s-0.4,0.3-0.7,0.8c-4.4,6.9-8.3,14.2-11.6,21.7
			c-6.2,14.1-10.4,27.1-12.6,39.1c-0.9,4.7-1.5,9.4-1.8,14.1c-0.2,2.3-0.7,3.9-1.6,4.8c-0.9,0.8-2.1,1.3-3.3,1.4
			c-2.7,0.2-4.3-0.9-4.8-3.3c-1.3-6.6-1.5-15.5-0.8-26.8c1.1-15.7,3.3-34.5,6.7-56.5c0.5-2.9,0.7-4.9,0.8-6c0.1-0.9,0-1.3-0.2-1.3
			s-0.8,0.6-1.5,1.6c-4.1,6.2-7.6,12.8-10.5,19.6c-5,11.1-8.7,22.7-11.1,34.7c-1.7,8.8-2.9,17.8-3.6,26.8c-0.2,2.6-0.7,4.4-1.7,5.3
			c-0.9,0.9-2.1,1.5-3.3,1.5c-2.7,0.2-4.2-1-4.7-3.7c-1-6.3-1.3-12.7-0.9-19.1c0.4-6.9,0.7-11.9,0.9-14.8
			c1.1-16.6,2.9-33.5,5.3-50.8c0.2-2.7,2.2-5,4.8-5.6c2.2-0.6,4.6-0.8,6.9-0.6c0.9,0,1.8,0.4,2.5,1.1c0.7,0.9,1,2,0.8,3.2
			c-0.1,1.6-0.4,3.5-0.7,5.7c-1,5.8-2,11.9-2.9,18.1c3.2-8.9,7.2-17.6,12-25.8c5.7-9.3,11.1-14.2,16.3-14.5c2.7-0.2,4.8,0.3,6.1,1.5
			c1.3,1.2,2.1,2.8,2.2,4.6c0.2,1.7,0.2,3.3,0.1,5c-0.1,1.8-0.4,3.5-0.7,5.3c-2.8,14.9-5.1,27.7-6.9,38.3
			c3.3-9.3,7.4-18.3,12.4-26.8c5.6-9.3,11.1-14.1,16.3-14.5c2.7-0.2,4.8,0.3,6.1,1.5c1.3,1.2,2.1,2.8,2.2,4.6
			c0.2,1.6,0.2,3.2,0.1,4.9c-0.1,1.8-0.4,3.6-0.7,5.4c-2.6,14-5,27.8-7.2,41.6s-3.8,27.7-4.7,41.7c-0.2,2.3-0.7,3.9-1.6,4.8
			C128.2,362.4,127,362.9,125.8,363z"/>
		<path class="st0" d="M183.7,335.8c-2.2,0.3-4.4-0.4-6.1-1.8c-1.7-1.6-2.9-3.6-3.5-5.8c-0.8-2.7-1.3-5.5-1.5-8.4
			c-0.9,2.4-2,4.8-3.3,7c-1.2,2.2-2.9,4.2-4.8,5.9c-1.9,1.7-4.3,2.6-6.8,2.8c-3.1,0.2-5.5-0.3-7.1-1.6c-1.7-1.5-2.9-3.5-3.4-5.7
			c-0.7-2.9-1.1-5.9-1.1-8.8c0-3.4,0.1-7,0.4-11c0.7-10.8,2-17.3,3.7-19.5c1.4-1.8,3.6-2.8,6.6-3c2.4-0.2,4.1,0,5.1,0.6
			c1,0.7,1.5,2,1.3,3.2c-0.1,0.8-0.2,1.5-0.3,2.2c-2.1,9-3.5,18.1-4.2,27.2c-0.2,1.9-0.1,3.8,0.3,5.7c0.3,1.2,1.4,1.9,2.6,1.7
			c2.3-0.2,5-5.3,8.2-15.5c3.1-10.2,4.8-17.1,5.1-21c0-1.6,0.5-3.1,1.5-4.3c0.9-1,2-1.8,3.2-2.2c1.4-0.5,2.8-0.8,4.3-0.9
			c2.4-0.2,4.1,0,5.1,0.6c1,0.7,1.5,2,1.3,3.2c-0.1,0.7-0.5,3.3-1.5,8c-1.7,9.8-2.8,18.1-3.2,24.8c-0.4,5.9-0.1,8.8,1,8.7
			c1.8-0.1,4.5-3.9,8.3-11.4c2.8-5.5,5.3-11.3,7.6-17.3c0.3-1,1.3-1.7,2.3-1.7c0.8-0.1,1.6,0.2,2.1,0.8c0.3,0.4,0.4,0.9,0.4,1.4
			c0,0.6-1.4,4.1-4.1,10.8C196.3,326.9,189.8,335.4,183.7,335.8z"/>
		<path class="st0" d="M237.4,332.9c-4.4,0.3-7.4-1.4-8.9-5.1c-1.5-3.8-2-9.3-1.5-16.5c0.2-2.9,0.5-5.7,0.8-8.6
			c0.4-3.2,0.7-6.4,0.9-9.5c0.1-2-0.2-3-1-2.9c-1.1,0.1-2.3,1.2-3.7,3.5c-1.6,2.7-3,5.4-4.1,8.3c-1.3,3.3-2.6,6.8-3.8,10.3
			c-1.2,3.5-2.1,6.7-2.9,9.6c-0.6,2-1,4-1.2,6.1c-0.2,2.3-0.7,3.9-1.6,4.7c-0.9,0.8-2.1,1.3-3.3,1.4c-2.7,0.2-4.3-0.9-4.8-3.1
			c-1.1-5.1-1.2-14.1-0.3-27c0.5-7.2,1-12.6,1.6-16.1c0.2-1.2,0.6-2.3,1.4-3.3c0.7-0.8,1.6-1.3,2.6-1.6c1.1-0.3,2.3-0.5,3.4-0.6
			c1.1-0.1,2.1-0.1,3.2,0c0.9,0,1.8,0.3,2.5,0.9c0.7,0.7,1,1.7,0.8,2.7c-0.1,1.5-0.3,2.9-0.6,4.3c-0.8,3.9-1.5,7.9-2.1,11.9
			c5.8-15.1,12.2-22.8,19.3-23.4c1.8-0.3,3.7,0.3,5.1,1.5c1.3,1.3,2.1,3,2.4,4.8c0.4,2.3,0.5,4.6,0.3,6.9c-0.3,4.8-0.8,9.9-1.4,15.4
			c-0.5,4.8-0.9,9-1.1,12.6c-0.2,3.4,0.1,5.1,1,5c1.7-0.1,4.3-3.2,7.6-9.3c3.6-6.6,6.7-13.6,9.3-20.7c0.3-1,1.3-1.7,2.4-1.7
			c0.8-0.1,1.5,0.2,2,0.8c0.3,0.4,0.4,0.9,0.4,1.4c0,0.3-0.1,0.6-0.2,0.9c-4.9,13.1-9.3,22.5-13.3,28.2
			C245.1,329.9,241.3,332.7,237.4,332.9z"/>
		<path class="st0" d="M291.3,327.9c-7.6,0.6-11.3-6.7-11.2-21.9c-1.6,4.6-3.6,9-6,13.2c-3.6,6-7.7,9.2-12.3,9.5
			c-2.5,0.2-4.5-0.3-5.8-1.5c-1.4-1.3-2.3-2.9-2.6-4.7c-0.5-2-0.6-4-0.5-6.1c0.2-3.2,0.7-6.3,1.3-9.4c0.7-3.5,1.6-6.9,2.7-10.2
			c1.1-3.3,2.6-6.5,4.4-9.4c1.6-2.7,3.7-5.2,6.2-7.1c2.4-1.9,5.3-3,8.3-3.1c2.9-0.2,5.7,1.1,7.3,3.6c0.3-1,0.8-1.9,1.4-2.8
			c1.4-1.8,3.8-2.8,7.2-3c2.4-0.2,4.1,0,5,0.6c1,0.7,1.6,1.9,1.4,3.1c-0.1,0.8-0.2,1.5-0.3,2.2c-0.3,1.2-0.8,3.9-1.5,7.9
			c-1.6,9.2-2.6,16.9-3,23c-0.1,1.1-0.1,2.8-0.2,5s0.4,3.4,1.3,3.3c1.7-0.1,4.5-3.9,8.2-11.4c2.8-5.6,5.3-11.4,7.5-17.3
			c0.3-1,1.3-1.7,2.3-1.7c0.8-0.1,1.6,0.2,2.1,0.8c0.3,0.4,0.4,0.9,0.4,1.4c0,0.6-1.4,4.2-4.1,10.8
			C303.9,318.9,297.4,327.4,291.3,327.9z M267,318.3c1-0.1,2.3-1.6,3.9-4.5c1.8-3.3,3.4-6.7,4.9-10.2c1.6-3.9,3-7.5,4.1-10.9
			c0.9-2.2,1.5-4.5,2-6.8c-0.3-0.5-0.7-0.9-1.2-1.2c-0.6-0.3-1.2-0.5-1.9-0.4c-3.4,0.3-6.4,3.8-8.9,10.7c-2.4,6.4-3.8,13.1-4.2,19.9
			C265.4,317.2,265.9,318.3,267,318.3z"/>
		<path class="st0" d="M317.6,361.7c-2.5,0.3-5.1-0.4-7-2c-1.7-1.6-2.5-3.9-2.3-7c0.5-6.5,3.6-12.8,9.5-18.6
			c4.8-4.6,10.1-8.6,15.8-12l1.4-11.4c-0.6,1.4-1.3,2.7-2.1,4.1c-3,5.4-6.9,8.3-11.6,8.7c-3.1,0.2-5.6-0.3-7.3-1.6
			c-1.8-1.4-3.1-3.4-3.6-5.7c-0.7-2.5-1.1-5.1-1.1-7.7c-0.1-2.6,0-5.9,0.3-9.9c0.8-12.3,2.1-19.6,3.9-21.8c1.4-1.8,3.8-2.8,7.2-3
			c2.4-0.2,4.1,0,5,0.6c1,0.7,1.5,2,1.3,3.2c-0.1,0.8-0.2,1.5-0.3,2.2c-2.1,9-3.5,18.1-4.1,27.2c-0.2,2.1,0,4.2,0.5,6.3
			c0.5,1.6,1.5,2.4,2.8,2.3s2.8-1.4,4.2-3.8c1.6-3,3-6.1,3.9-9.4c1.6-5.2,2.8-10.6,3.5-16c0.3-2.7,0.7-5.5,1.3-8.1
			c0.4-1.9,1.3-3.7,2.7-5.2c1.3-1.4,3.4-2.2,6.3-2.4c3.8-0.3,5.6,0.9,5.4,3.5l-1.1,11.9c-0.9,9.3-1.9,17.6-3,24.8
			c7.8-7.1,13-14.9,15.7-23.5c0.3-1,1.2-1.7,2.2-1.7c0.8-0.1,1.6,0.2,2.1,0.8c0.3,0.4,0.4,0.9,0.4,1.4c0,0.3-0.1,0.7-0.2,1
			c-1.3,4-3.1,7.9-5.3,11.6c-3.7,6.5-9.1,12.5-16.2,18.1c-0.9,4.8-1.8,8.9-2.8,12.5c-2.3,8.4-5.6,15.2-9.6,20.6
			C330.3,357.7,324.5,361.2,317.6,361.7z M317.5,354.8c1.8-0.1,3.6-1.3,5.6-3.5c4.3-4.9,7.5-12.5,9.5-22.8c-3.4,2.4-6.7,5-9.8,7.8
			c-5.2,5-8,10.1-8.3,15.1c-0.3,1.6,0.8,3,2.3,3.3C317,354.8,317.3,354.8,317.5,354.8L317.5,354.8z"/>
		<path class="st0" d="M191.4,77.4l-0.5-0.5l-15,16l-14.3-15.2l-14.2,15.1l-6.9-7.3L86.7,228.2c-0.3,0.8,0.1,1.8,0.9,2.2
			c0.2,0.1,0.4,0.1,0.7,0.1h48.3c1.4,0,2.6-0.9,3.1-2.2l26.2-71.7c0.3-0.9,1.3-1.3,2.1-1c0.5,0.2,0.8,0.5,1,1l26.2,71.7
			c0.5,1.3,1.7,2.2,3.1,2.2h48.3c0.9,0,1.7-0.7,1.7-1.7c0-0.2,0-0.4-0.1-0.6L191.4,77.4z"/>
		<path class="st0" d="M161,29.7c0.1,0.4,0.1,0.8,0,1.1L143.6,77l3.8,4l14.2-15.1l14.3,15.2L188,68.2l-14.1-37.4
			c-0.1-0.4-0.1-0.8,0-1.1L183,4.5c0.3-0.9-0.1-1.8-1-2.1l-6.1-2.2c-1.7-0.6-3.6,0.3-4.2,2c0,0,0,0,0,0L169,9.5
			c-0.3,0.9-1.3,1.3-2.1,1c-0.5-0.2-0.8-0.5-1-1l-2.7-7.3c-0.6-1.7-2.5-2.6-4.2-2c0,0,0,0,0,0l-6.1,2.2c-0.4,0.2-0.8,0.5-0.9,0.9
			c-0.2,0.4-0.2,0.9,0,1.3L161,29.7z"/>
		<path class="st1" d="M240.2,4.5c-0.3-0.9,0.1-1.8,1-2.1l7.7-2.8c0.9-0.3,1.8,0.1,2.1,1l4.8,13.1l4.8-13.1c0.3-0.9,1.3-1.3,2.1-1
			l7.7,2.8c0.4,0.2,0.8,0.5,0.9,0.9c0.2,0.4,0.2,0.8,0,1.2L262,30.3L279,75.6l-4.6,4.9l-17-18.1l-18.3,19.4l-6.4-6.8l16.9-44.8
			L240.2,4.5z"/>
		<path class="st1" d="M336.5,228.2L282.2,84l-7.8,8.2l-17-18.1l-18.3,19.5l-9.6-10.2L218.8,112c-0.1,0.4-0.1,0.8,0,1.2l24.4,65
			c0.2,0.6,0.9,1.1,1.6,1.1l0,0c0.7,0,1.3-0.4,1.6-1.1l7.9-21.5c0.3-0.9,1.3-1.3,2.1-1c0.5,0.2,0.8,0.5,1,1l26.6,72.8
			c0.2,0.7,0.9,1.1,1.6,1.1h49.5c0.9,0,1.7-0.7,1.7-1.7C336.6,228.6,336.5,228.4,336.5,228.2"/>
		<path class="st0" d="M97.8,72.1l-6.7,22.4c-0.7,2.2-4.1,1.4-3.4-0.8c1.6-5.4,3.3-10.9,4.9-16.3c-2.6,2.1-5,4.3-7.5,6.5l-6.5,21.8
			c-0.7,2.2-4.1,1.4-3.4-0.8L80,88.8C52,116.5,34.6,152.5,29.2,192.1c-0.7,4.8-1.2,9.8-1.5,14.8l20,12.3c1.9,1.2,0.3,4.3-1.6,3.1
			l-10.3-6.3l-7.4-4.5l-1-0.6c-0.1,2.8-0.2,5.7-0.3,8.5l20.1,12.3c1.9,1.2,0.3,4.3-1.6,3.1l-10.3-6.3l-7.4-4.5l-0.8-0.5
			c0,2.7,0.1,5.4,0.3,8.2l21.5,11.2c2,1,0.6,4.3-1.4,3.2l-10.7-5.6l-7.6-4l-1.4-0.7c0.5,6.4,1.5,12.8,2.9,19.1
			c0.5,2.2-2.8,3.3-3.3,1.1c-1.5-6.7-2.5-13.4-3.1-20.2L4.7,248.2c-1.9,1.2-4-1.6-2.1-2.8L24,231.7c-0.2-3.1-0.3-6.1-0.3-9.2
			L2.7,234c-2,1.1-3.9-1.9-1.9-2.9l22.9-12.5c0-2.8,0.1-5.6,0.3-8.4L3.2,221.5c-2,1.1-3.9-1.8-1.9-2.9l23-12.6
			c0.4-5.3,1-10.6,1.7-15.8c5.3-39.5,23.6-76.1,52-104.1l-16.3,3.7c-2.2,0.5-3.3-2.8-1.1-3.3l22.3-5c2.4-2.2,4.9-4.4,7.5-6.5
			l-16.1,3.7c-2.2,0.5-3.3-2.8-1.1-3.3l22.5-5.1C96.7,69.8,98.3,70.7,97.8,72.1"/>
		<path class="st0" d="M387,256.2l-8.8-21.7c-0.8-2.1,2.3-3.7,3.1-1.6c2.1,5.3,4.2,10.5,6.4,15.8c0.7-3.2,1.3-6.5,1.8-9.7l-8.5-21.1
			c-0.8-2.1,2.3-3.7,3.1-1.6c2.1,5.2,4.2,10.4,6.3,15.6c4.5-39.1-4.2-78.1-24.7-112.4c-2.5-4.2-5.2-8.4-8-12.5l-23.3,2.9
			c-2.2,0.3-3-3.2-0.7-3.4l12-1.5l8.6-1.1l1.1-0.1c-1.7-2.3-3.4-4.6-5.1-6.8L327,99.8c-2.2,0.3-3-3.2-0.7-3.4l12-1.5l8.6-1.1
			l0.9-0.1c-1.7-2.1-3.5-4.2-5.3-6.2l-23.8,4.6c-2.2,0.4-3.2-3-0.9-3.4l11.9-2.3l8.5-1.6l1.5-0.3c-4.4-4.7-9.2-9.1-14.2-13.1
			c-1.8-1.4,0.1-4.4,1.9-3c5.3,4.3,10.3,8.9,15,13.9c2.5-7.3,5-14.7,7.5-22c0.7-2.1,4.1-1.3,3.4,0.9l-8.2,24c2.1,2.3,4.1,4.6,6,7
			l9.2-22c0.9-2.1,4.2-1,3.3,1.1l-10.1,24.2c1.7,2.2,3.4,4.5,5,6.8l9.1-21.8c0.9-2.1,4.2-1,3.3,1.1c-3.4,8-6.7,16.1-10.1,24.2
			c3,4.4,5.9,8.9,8.6,13.4c20.5,34.2,29.1,74.2,24.4,113.8l10.4-13c1.4-1.8,4.4,0.1,3,1.9L393,239.5c-0.5,3.2-1.1,6.5-1.8,9.7
			c3.4-4.3,6.9-8.6,10.3-12.9c1.4-1.8,4.4,0.1,3,1.9l-14.4,18C389.3,257.2,387.5,257.5,387,256.2"/>
	</g>
</g>
</svg>
