<?xml version="1.0" encoding="utf-8"?>
<!-- Generator: Adobe Illustrator 25.0.0, SVG Export Plug-In . SVG Version: 6.00 Build 0)  -->
<svg version="1.1"
	 id="Capa_1" inkscape:version="1.0.2-2 (e86c870879, 2021-01-15)" sodipodi:docname="logoMunay.svg" xmlns:cc="http://creativecommons.org/ns#" xmlns:dc="http://purl.org/dc/elements/1.1/" xmlns:inkscape="http://www.inkscape.org/namespaces/inkscape" xmlns:rdf="http://www.w3.org/1999/02/22-rdf-syntax-ns#" xmlns:sodipodi="http://sodipodi.sourceforge.net/DTD/sodipodi-0.dtd" xmlns:svg="http://www.w3.org/2000/svg"
	 xmlns="http://www.w3.org/2000/svg" xmlns:xlink="http://www.w3.org/1999/xlink" x="0px" y="0px" viewBox="0 0 629.2 109.4"
	 style="enable-background:new 0 0 629.2 109.4;" xml:space="preserve">
<style type="text/css">
	.st0{fill:#F8F9F4;}
	.st1{fill:#EE7779;}
	.st2{fill:#92EECC;}
</style>
<sodipodi:namedview  bordercolor="#666666" borderopacity="1" gridtolerance="10" guidetolerance="10" id="namedview134" inkscape:current-layer="Capa_1" inkscape:cx="157.62857" inkscape:cy="60.284324" inkscape:pageopacity="0" inkscape:pageshadow="2" inkscape:window-height="1017" inkscape:window-maximized="1" inkscape:window-width="1920" inkscape:window-x="-8" inkscape:window-y="-8" inkscape:zoom="1.7687947" objecttolerance="10" pagecolor="#ffffff" showgrid="false">
	</sodipodi:namedview>
<g id="Capa_1-2">
	<g id="g124">
		<path id="path96" class="st0" d="M333.5,40.9c1.7-1.3,3.7-2.1,5.7-2.5c1.9-0.4,3.9-0.3,5.8,0.5c2,0.6,3.7,2.1,4.4,4.1
			c0.8,2.1,0.5,4.6-0.8,7.5c-2.1,4.7-7.1,8.6-15,11.4h-0.1c0.1,5.2,0.3,9.8,0.7,13.9c0,0.3,0,0.5-0.3,0.7c-0.1,0.3-0.4,0.4-0.7,0.4
			c-0.3,0-0.5,0-0.7-0.3c-0.3-0.1-0.4-0.4-0.4-0.6c-0.5-4.7-0.7-10.6-0.7-17.4c0-1.9,0-4.7,0.1-8.7c0-3.9,0.1-6.7,0.1-8.7
			c0-0.5,0.4-0.9,0.9-0.9C333.1,40.4,333.4,40.6,333.5,40.9L333.5,40.9z M333.4,60.1c7.1-2.6,11.6-6.1,13.5-10
			c1.1-1.9,1.3-4.1,0.7-6.2c-0.6-1.4-1.7-2.6-3.2-3c-1.7-0.6-3.7-0.7-5.4-0.3c-2,0.4-3.8,1.4-5.2,2.9l-0.1,0.1c0,1.4,0,3.9-0.1,7.4
			c-0.1,3.4-0.1,6.1-0.1,7.9L333.4,60.1L333.4,60.1z"/>
		<path id="path98" class="st0" d="M354.7,40.1c0,2,0,4.9,0,8.7s0,7-0.1,9.5c0,2.4,0,5.2,0.1,8.6c0.1,3.3,0.4,6.4,0.6,9.1
			c0,0.3,0,0.5-0.3,0.7c-0.1,0.3-0.4,0.4-0.6,0.4c-0.3,0-0.5,0-0.7-0.3c-0.3-0.1-0.4-0.4-0.4-0.6c-0.3-2.8-0.5-5.8-0.6-9.1
			c-0.1-3.3-0.3-6.2-0.1-8.7c0.1-2.5,0-5.5,0.1-9.5c0.1-3.9,0-6.9,0-8.7c0-0.3,0.1-0.5,0.3-0.7c0.4-0.4,0.9-0.4,1.3,0l0,0
			C354.6,39.6,354.7,39.9,354.7,40.1z"/>
		<path id="path100" class="st0" d="M372.6,40.1l0.5,5.2c0.1,0.8,0.3,2.5,0.4,5c0.1,2.5,0.3,4.5,0.3,5.9s-0.2,3.1-0.2,5.2
			c0,1.9-0.3,3.8-0.6,5.7c-0.4,1.7-0.7,3.2-1.2,4.9c-0.5,1.6-1.4,3-2.6,4.2c-1.2,1.1-2.5,1.9-4,2.4c-1.6,0.4-3,0.3-4.6-0.4
			c-1.6-0.7-2.9-1.9-3.7-3.4c-0.1-0.3-0.1-0.5-0.1-0.7s0.3-0.5,0.5-0.6c0.3-0.1,0.5-0.1,0.7-0.1c0.3,0,0.5,0.3,0.6,0.5
			c0.6,1.2,1.6,2,2.8,2.6c1.1,0.5,2.2,0.5,3.4,0.3c1.2-0.4,2.4-0.9,3.3-1.9c0.9-0.9,1.7-2.1,2.1-3.6c0.6-1.9,1.1-3.9,1.3-5.9
			c0.3-2.2,0.5-4.2,0.6-5.9c0.1-1.7,0-3.9-0.1-6.7c-0.1-2.9-0.3-4.9-0.4-6.1c-0.1-1.2-0.3-3.3-0.6-6.3c0-0.3,0-0.6,0.3-0.7
			c0.1-0.3,0.4-0.4,0.7-0.4c0.3,0,0.5,0,0.7,0.3C372.5,39.6,372.6,39.9,372.6,40.1z"/>
		<path id="path102" class="st0" d="M395.7,61c-0.7,4.2-2.2,8.4-4.5,12.1c-1.1,1.7-2.8,3-4.7,3.7c-2.1,0.6-4.4-0.3-5.7-2
			c-2.6-3.2-3.8-7.9-3.6-14.4c0.1-2.6,0.5-5.3,1.2-7.9c0.5-2.2,1.3-4.5,2.4-6.5c1.1-2,2.6-3.8,4.5-5.2c1.4-1.1,3-1.6,4.9-1.2
			c1.7,0.4,3.2,1.4,4.1,2.9c1.3,1.9,2.1,4,2.6,6.3c0.1,0.4,0,0.6-0.3,0.8c0.1,0.1,0.1,0.1,0.1,0.3c0.1,0,0.1,0.1,0.1,0.3v0.3v0.1
			c0,1.1,0.1,2.6,0.4,4.6c0.3,2,0.4,3.6,0.4,4.5c0.1,1.7,0.3,4.1,0.5,7.2c0.1,1.4,0.6,4.6,1.3,9.8c0,0.3,0,0.5-0.3,0.7
			c-0.1,0.3-0.4,0.4-0.6,0.4c-0.3,0-0.5,0-0.7-0.3c-0.3-0.1-0.4-0.4-0.4-0.6c-0.8-5.4-1.2-8.7-1.3-9.8
			C395.9,64.5,395.8,62.5,395.7,61z M394.9,49.1c-0.4-1.9-1.1-3.8-2.1-5.4c-0.7-1.1-1.7-1.9-3-2.2c-1.3-0.1-2.5,0.3-3.4,0.9
			c-1.6,1.2-2.9,2.8-3.8,4.5c-1.1,1.9-1.9,3.9-2.4,6.1c-0.6,2.5-0.9,5-1.1,7.5c-0.3,5.9,0.8,10.3,3.2,13.1c0.8,1.2,2.4,1.7,3.8,1.4
			c1.6-0.5,2.9-1.6,3.7-2.9c2.2-3.4,3.9-8.2,4.7-14.1c0.1-1.1,0.4-2.9,0.5-5.2c0-0.3,0-0.8,0-1.7V50v-0.1c0-0.1,0.1-0.3,0.1-0.4
			C394.9,49.5,394.9,49.3,394.9,49.1z"/>
		<path id="path104" class="st0" d="M405.9,40.8c0.3,0.4,0.6,0.9,1.1,1.7l1.7,3.3l1.9,3.6c1.2,2,2.1,3.6,2.9,4.7
			c0.4,0.6,0.7,1.1,1.1,1.6L415,56c0.1-0.1,0.1-0.1,0.3-0.3c0.5-0.4,0.8-0.8,1.2-1.4c1.2-1.6,2.2-3,3.2-4.7c1.3-2,2.9-5,5.1-9
			c0.1-0.3,0.4-0.4,0.6-0.5c0.1,0,0.3,0,0.4,0c0.3,0,0.5,0.1,0.7,0.3c0.1,0.1,0.3,0.4,0.3,0.7c-0.1,2-0.1,7.9,0,17.9
			c0.1,9.9,0.3,15.8,0.3,17.9c0,0.3-0.1,0.5-0.3,0.7c-0.4,0.4-0.9,0.4-1.3,0l0,0c-0.3-0.1-0.3-0.4-0.3-0.7c0-2.6,0-7.7-0.1-15
			c-0.1-7.4-0.1-13.1,0-17.2c-1.3,2.4-2.5,4.2-3.6,6.1c-0.9,1.7-2.1,3.3-3.3,5c-0.5,0.6-0.9,1.2-1.4,1.7c-0.5,0.5-1.1,0.7-1.7,0.7
			c-0.6-0.1-1.1-0.5-1.4-0.9c-0.4-0.5-0.8-0.9-1.3-1.7c-0.8-1.2-1.7-2.9-2.9-5l-3.2-5.7c-0.1,4-0.1,9.8,0,17.3s0.1,12.5,0.1,15.2
			c0,0.5-0.5,0.9-1.1,0.8c-0.5,0-0.8-0.4-0.8-0.8c0-1.9-0.1-7.9-0.3-17.9c-0.1-9.9-0.1-16,0-17.9c0-0.3,0.1-0.5,0.3-0.7
			c0.1-0.1,0.4-0.3,0.7-0.3c0.3,0,0.5,0.1,0.6,0.3C405.7,40.6,405.9,40.7,405.9,40.8z"/>
		<path id="path106" class="st0" d="M448.8,61c-0.7,4.2-2.2,8.4-4.6,12.1c-1.1,1.7-2.8,3-4.7,3.7c-2.1,0.6-4.4-0.3-5.7-2
			c-2.8-3.2-3.9-7.9-3.6-14.4c0.1-2.8,0.5-5.3,1.2-7.9c0.5-2.2,1.3-4.5,2.4-6.5c1.1-2,2.6-3.8,4.5-5.2c1.4-1.1,3-1.6,4.9-1.2
			c1.7,0.4,3.2,1.4,4.1,2.9c1.3,1.9,2.1,4,2.6,6.3c0.1,0.4,0,0.6-0.3,0.8c0.1,0.1,0.1,0.1,0.1,0.3c0.1,0,0.1,0.1,0.1,0.3v0.3v0.1
			c0,1.1,0.1,2.6,0.4,4.6s0.4,3.6,0.4,4.5c0.1,1.7,0.3,4.1,0.5,7.2c0.1,1.4,0.6,4.6,1.3,9.8c0,0.3,0,0.5-0.3,0.7
			c-0.1,0.3-0.4,0.4-0.6,0.4c-0.3,0-0.5,0-0.7-0.3c-0.3-0.1-0.4-0.4-0.4-0.6c-0.8-5.4-1.2-8.7-1.3-9.8C449,64.5,448.9,62.5,448.8,61
			z M447.9,49.1c-0.4-1.9-1.1-3.8-2.2-5.4c-0.7-1.1-1.7-1.9-3-2.2c-1.3-0.1-2.5,0.3-3.4,0.9c-1.6,1.2-2.9,2.8-3.8,4.5
			c-1.1,1.9-1.9,3.9-2.4,6.1c-0.6,2.5-0.9,5-1.1,7.5c-0.3,5.9,0.8,10.3,3.2,13.1c0.8,1.2,2.4,1.7,3.8,1.4c1.6-0.5,2.9-1.6,3.7-2.9
			c2.2-3.4,3.9-8.2,4.7-14.1c0.1-1.1,0.4-2.9,0.5-5.2c0-0.3,0-0.8,0-1.7V50c0,0,0-0.1,0.1-0.1c0-0.1,0.1-0.3,0.1-0.4
			C447.9,49.4,447.9,49.3,447.9,49.1z"/>
		<path id="path108" class="st0" d="M457,40.1c2.9,0.1,5.5,0.8,8,2.2c2.6,1.4,5,3.4,6.7,5.8c1.9,2.4,3.2,5,4,7.9
			c0.7,2.9,0.6,5.9-0.3,8.7c-1.1,3.3-3.4,6.3-7.2,8.8c-1.4,1.1-3,1.7-4.7,2.4c-1.7,0.5-3.4,0.8-5.2,0.8c-0.1,0.4-0.4,0.6-0.7,0.7
			c-0.3,0-0.5,0-0.7-0.1c-0.3-0.1-0.4-0.4-0.5-0.6c-0.6-3-0.9-6.3-1.2-9.5c-0.3-3.4-0.4-6.4-0.5-8.6c-0.1-2.1,0-5.5,0.1-9.8
			c0.1-4.2,0.1-7.2,0.1-8.7c0-0.3,0.1-0.5,0.3-0.7c0.1-0.3,0.4-0.3,0.7-0.3C456.6,39.3,457,39.6,457,40.1z M458.1,75.1
			c1.7,0,3.3-0.3,4.9-0.7s2.9-1.3,4.2-2.2c3.4-2.4,5.5-5,6.5-7.8c0.7-2.5,0.8-5.2,0.1-7.8c-0.7-2.6-1.9-5.1-3.7-7.2
			c-1.7-2.1-3.8-3.9-6.2-5.2c-2.2-1.3-4.6-2-7.2-2.1c0,1.3,0,3.4-0.1,6.5c-0.1,3-0.1,5.4-0.1,7.1s0,3.7,0.1,6.3s0.3,4.9,0.5,7
			C457.4,70.9,457.9,73,458.1,75.1L458.1,75.1z"/>
		<path id="path110" class="st0" d="M498.3,61c-0.7,4.2-2.2,8.4-4.6,12.1c-1.1,1.7-2.8,3-4.7,3.7c-2.1,0.6-4.4-0.3-5.7-2
			c-2.6-3.2-3.8-7.9-3.6-14.4c0.1-2.8,0.5-5.3,1.2-7.9c0.5-2.2,1.3-4.5,2.5-6.5c1.1-2,2.6-3.8,4.5-5.2c1.4-1.1,3-1.6,4.9-1.2
			c1.7,0.4,3,1.4,4,2.9c1.3,1.9,2.1,4,2.6,6.3c0.1,0.4,0,0.6-0.3,0.8c0,0.1,0.1,0.1,0.1,0.3c0.1,0,0.1,0.1,0.1,0.3v0.3v0.1
			c0,1.1,0.1,2.6,0.4,4.6s0.4,3.6,0.4,4.5c0.1,1.7,0.3,4.1,0.5,7.2c0.1,1.4,0.6,4.6,1.3,9.8c0,0.3,0,0.5-0.3,0.7
			c-0.1,0.3-0.4,0.4-0.6,0.4c-0.3,0-0.5,0-0.7-0.3c-0.3-0.1-0.4-0.4-0.4-0.6c-0.8-5.4-1.2-8.7-1.3-9.8
			C498.5,64.5,498.4,62.5,498.3,61z M497.4,49.1c-0.4-1.9-1.1-3.8-2.1-5.4c-0.7-1.1-1.7-1.9-3-2.2c-1.3-0.1-2.5,0.3-3.4,0.9
			c-1.6,1.2-2.9,2.8-3.7,4.5c-1.1,1.9-1.9,3.9-2.4,6.1c-0.6,2.5-0.9,5-1.1,7.5c-0.3,5.9,0.8,10.3,3.2,13.1c0.8,1.2,2.4,1.7,3.7,1.4
			c1.6-0.5,2.9-1.6,3.7-2.9c2.2-3.4,3.9-8.2,4.7-14.1c0.1-1.1,0.4-2.9,0.5-5.2c0-0.3,0-0.8,0-1.7V50v-0.1c0-0.1,0.1-0.3,0.1-0.4
			C497.4,49.5,497.4,49.3,497.4,49.1z"/>
		<path id="path112" class="st0" d="M519.8,50.3c0-0.1,0-0.4,0-0.5c-0.3-1.4-0.4-2.4-0.5-2.9c-0.3-0.8-0.5-1.6-0.8-2.2
			c-0.4-0.8-0.9-1.6-1.7-2.1c-0.8-0.7-1.9-1.2-2.9-1.2c-1.2,0-2.4,0.3-3.4,0.7c-1.1,0.5-2.1,1.3-2.9,2.1c-0.7,0.8-1.2,1.7-1.3,2.9
			c0,2.1,0.8,4.2,2.2,5.8c1.7,2.1,3.7,4,5.8,5.9c2.1,1.9,4.1,4,5.9,6.3c1.7,2.1,2.6,4.7,2.4,7.5c-0.1,2.1-1.4,4.1-3.4,4.9
			c-2,0.6-4.1,0.5-6.1-0.4c-2.1-0.8-4.1-2.1-5.8-3.8c-1.7-1.6-2.9-3.4-3.3-5.5c0-0.3,0-0.5,0.1-0.7s0.4-0.4,0.6-0.5
			c0.3,0,0.5,0,0.7,0.1c0.3,0.1,0.4,0.4,0.5,0.6c0.5,1.7,1.4,3.4,2.9,4.7c1.4,1.4,3.2,2.6,5.2,3.3c1.4,0.7,3,0.8,4.6,0.4
			c1.3-0.6,2.2-1.9,2.2-3.3c0.1-2.2-0.6-4.4-1.9-6.2c-1.7-2.1-3.7-4.1-5.7-6.1c-2.1-1.9-4.1-3.9-6.1-6.2c-1.7-2-2.6-4.5-2.6-7.1
			c0.1-1.4,0.7-2.9,1.7-3.9c0.9-1.2,2.1-2.1,3.6-2.8c1.3-0.7,2.9-0.9,4.4-0.9s2.9,0.6,4.1,1.6c0.3,0.3,0.6,0.5,0.8,0.8
			c0.3,0.4,0.5,0.6,0.6,0.8c0.3,0.3,0.4,0.6,0.5,0.9l0.5,0.9c0.1,0.4,0.3,0.6,0.4,0.9l0.3,0.9c0.1,0.3,0.1,0.5,0.3,0.9
			c0.1,0.5,0.1,0.8,0.1,0.9s0.1,0.5,0.1,0.9c0,0.4,0.1,0.6,0.1,0.9c0,0.3,0,0.5-0.1,0.7c-0.4,0.5-0.9,0.5-1.3,0.3
			C520.1,50.8,519.9,50.6,519.8,50.3L519.8,50.3z"/>
		<path id="path114" class="st0" d="M537.7,41.1c6.4-0.9,12.8-1.2,19.1-0.7c0.3,0,0.5,0.1,0.6,0.3c0.1,0.3,0.3,0.5,0.3,0.7
			s-0.1,0.5-0.3,0.7c-0.3,0.1-0.5,0.3-0.7,0.3c-3.6-0.1-6.7-0.1-9.5-0.1c0,1.7,0,4.6-0.1,8.6c0,3.8-0.1,6.9-0.1,9.2
			c0,2.2,0,5.1,0.1,8.3c0.1,3.2,0.3,6.2,0.6,8.8c0,0.3,0,0.5-0.3,0.7c-0.1,0.3-0.4,0.4-0.7,0.4c-0.3,0-0.5,0-0.7-0.3
			c-0.3-0.1-0.4-0.4-0.4-0.6c-0.3-2.6-0.5-5.7-0.6-8.8c-0.1-3.2-0.1-6.1-0.1-8.3c0-2.2,0-5.3,0.1-9.2s0.1-6.7,0.1-8.6
			c-2.5,0.1-5,0.4-7.5,0.8c-0.3,0-0.5,0-0.7-0.3c-0.3-0.1-0.4-0.4-0.4-0.6c0-0.3,0-0.5,0.1-0.7C537.2,41.3,537.5,41.2,537.7,41.1z"
			/>
		<path id="path116" class="st0" d="M562.3,40.1c0,2,0,4.9-0.1,8.7s-0.1,7-0.1,9.5c0,2.4,0,5.2,0.1,8.6s0.3,6.4,0.6,9.1
			c0,0.3,0,0.5-0.3,0.7c-0.1,0.3-0.4,0.4-0.7,0.4c-0.3,0-0.5,0-0.7-0.3c-0.3-0.1-0.4-0.4-0.4-0.6c-0.3-2.8-0.5-5.8-0.6-9.1
			c-0.1-3.3-0.1-6.2-0.1-8.7c0-2.5,0-5.5,0.1-9.5c0.1-3.9,0-6.9,0-8.7c0-0.5,0.5-0.9,0.9-0.9c0.3,0,0.5,0.1,0.7,0.3
			C562.2,39.6,562.3,39.9,562.3,40.1z"/>
		<path id="path118" class="st0" d="M567.9,40.9c1.7-1.3,3.7-2.1,5.7-2.5c1.9-0.4,3.9-0.3,5.8,0.5c2,0.6,3.7,2.1,4.4,4.1
			c0.7,2.1,0.5,4.6-0.8,7.5c-2.1,4.7-7.1,8.6-15,11.4h-0.2c0.1,5.2,0.4,9.8,0.7,13.9c0,0.3,0,0.5-0.3,0.7c-0.1,0.3-0.4,0.4-0.7,0.4
			c-0.3,0-0.5,0-0.7-0.3c-0.3-0.1-0.4-0.4-0.4-0.6c-0.5-4.7-0.7-10.6-0.7-17.4c0-1.9,0-4.7,0.1-8.7c0-3.9,0.1-6.7,0.1-8.7
			c0-0.3,0.1-0.5,0.3-0.7c0.1-0.3,0.4-0.3,0.7-0.3C567.4,40.3,567.9,40.6,567.9,40.9z M567.8,60.1c7.1-2.6,11.6-6.1,13.5-10
			c1.1-1.9,1.3-4.1,0.7-6.2c-0.6-1.4-1.7-2.6-3.2-3c-1.7-0.6-3.7-0.7-5.4-0.3c-2,0.4-3.8,1.4-5.2,2.9c-0.1,0-0.1,0.1-0.1,0.1
			c0,1.4,0,3.9-0.1,7.4s-0.1,6.1-0.1,7.9L567.8,60.1L567.8,60.1z"/>
		<path id="path120" class="st0" d="M591,42.5l1.4,4.2c0.6,1.6,1.1,3,1.6,4.4c0.7,2,1.6,4,2.6,5.9c0.4,0.6,0.7,1.2,1.2,1.7
			c0.1,0.1,0.3,0.3,0.4,0.4c0.3-0.1,0.5-0.4,0.7-0.5c0.5-0.6,0.9-1.2,1.3-1.7c1.1-1.9,2-3.8,2.9-5.8c0.6-1.4,1.2-2.9,1.7-4.2
			c0.5-1.4,1.2-2.9,1.6-4.2c0.4-1.3,0.7-2.1,0.9-2.5c0.1-0.3,0.3-0.4,0.5-0.5c0.3-0.1,0.5-0.1,0.7,0c0.3,0.1,0.5,0.3,0.5,0.5
			c0.1,0.3,0.1,0.5,0,0.7c-0.1,0.4-0.5,1.2-0.9,2.4l-1.6,4.2c-0.6,1.4-1.2,2.9-1.7,4.2c-0.8,2.1-1.9,4.1-2.9,6.1
			c-0.5,0.7-0.9,1.4-1.6,2.1c-0.4,0.4-0.7,0.6-1.2,0.8c0.4,5.1,0.3,10.3-0.1,15.4c0,0.3-0.1,0.5-0.4,0.7c-0.3,0.1-0.5,0.3-0.7,0.3
			c-0.3,0-0.5-0.1-0.7-0.4c-0.1-0.1-0.3-0.4-0.3-0.7c0.5-5.1,0.5-10.2,0.1-15.3c-0.4-0.1-0.6-0.4-0.8-0.7c-0.5-0.6-0.9-1.3-1.4-2
			c-1.1-2-2-4-2.8-6.2c-0.5-1.4-1.1-2.9-1.6-4.4l-1.4-4.2L588,41c-0.1-0.3-0.1-0.5,0-0.7s0.3-0.4,0.5-0.5c0.3-0.1,0.5-0.1,0.7,0
			c0.3,0.1,0.4,0.3,0.5,0.5C590.3,40.5,590.5,41.2,591,42.5z"/>
		<path id="path122" class="st0" d="M626.4,50.3c0-0.3,0-0.4,0-0.5c-0.3-1.4-0.4-2.4-0.5-2.9c-0.3-0.8-0.5-1.6-0.8-2.2
			c-0.4-0.8-0.9-1.6-1.7-2.1c-0.8-0.7-1.9-1.2-2.9-1.2c-1.2,0-2.4,0.3-3.4,0.7c-1.1,0.5-2.1,1.3-2.9,2.1c-0.7,0.8-1.2,1.7-1.3,2.9
			c0,2.1,0.8,4.2,2.2,5.8c1.7,2.1,3.7,4,5.8,5.9c2.1,1.8,4.1,4,5.9,6.3c1.7,2.1,2.5,4.7,2.4,7.5c-0.1,2.1-1.4,4.1-3.4,4.9
			c-2,0.6-4.1,0.5-6.1-0.4c-2.1-0.8-4.1-2.1-5.8-3.8c-1.7-1.6-2.9-3.4-3.3-5.5c0-0.3,0-0.5,0.1-0.7s0.4-0.4,0.6-0.5
			c0.3,0,0.5,0,0.7,0.1c0.3,0.1,0.4,0.4,0.5,0.6c0.5,1.7,1.4,3.4,2.9,4.7c1.4,1.4,3.2,2.6,5.2,3.3c1.4,0.7,3,0.8,4.6,0.4
			c1.3-0.6,2.2-1.9,2.2-3.3c0.1-2.2-0.6-4.4-1.9-6.2c-1.7-2.1-3.7-4.1-5.7-6.1c-2.1-1.9-4.1-3.9-6.1-6.2c-1.7-2-2.6-4.5-2.6-7.1
			c0.1-1.4,0.7-2.9,1.7-3.9c0.9-1.2,2.1-2.1,3.6-2.8c1.3-0.7,2.9-0.9,4.4-0.9c1.6,0,2.9,0.6,4.1,1.6c0.3,0.3,0.6,0.5,0.8,0.8
			c0.3,0.3,0.5,0.6,0.6,0.8c0.3,0.3,0.4,0.6,0.5,0.9l0.5,0.9c0.1,0.4,0.3,0.6,0.4,0.9l0.3,0.9c0.1,0.4,0.1,0.7,0.3,0.9
			c0.1,0.5,0.1,0.8,0.1,0.9s0,0.5,0.1,0.9c0.1,0.5,0.1,0.8,0.1,0.9c0,0.3,0,0.5-0.1,0.7c-0.4,0.5-0.9,0.5-1.3,0.3l0,0
			C626.7,50.8,626.5,50.6,626.4,50.3z"/>
	</g>
	<path id="path126" class="st0" d="M227,24.2c-2-4.7-3.9-9.3-5.4-13.8l4.2-0.6c0.9,3,2,6,3.1,8.9c1.6-4.4,2.9-8.7,4.3-13.1l4.2,0.4
		c-1.9,5.7-4,11.8-6.4,18c2.3,5.2,4.8,10.5,7.5,15.6l-1.5,1.5l-6.9-6l-5.9,5.5l-3-2C223.2,33.8,225.2,29,227,24.2z M240.3,43.3
		l-3.1,3.1l-7-6l-5.6,5.2l-5.1-3.3c-7.4,16.8-14.8,31.2-20.2,43c-0.6,1.3,0,2.9,1.3,3.5c0.3,0.1,0.5,0.2,0.7,0.2l20,2.6
		c1.2,0.2,2.3-0.6,2.8-1.7c1.9-4.9,4-10.3,5.6-14.8c1.3,4,3.9,11.4,5.2,14.7c0.4,1,1.3,1.7,2.4,1.7c7.9,0.2,16.6,0.6,25.6,1.5
		c1.5,0.1,2.7-0.9,2.9-2.4c0.1-0.6-0.1-1-0.3-1.5C256.2,72.4,247.8,57.8,240.3,43.3z M128.3,65c0.8-3,1.5-6,1.9-9
		c0.5-3,0.8-5.8,1.1-8.6c0.3-2.8,0.4-5.3,0.4-7.6c0-3.6-0.1-7.2-0.4-10.7c-0.1-1.4-1.2-2.4-2.6-2.4h-16.7c-1.5,0-2.6,1.2-2.6,2.6
		c0,0.1,0,0.1,0,0.2c0.1,1.5,0.2,2.9,0.2,4.5c0.1,2.4,0.1,4.9,0.1,7.3c0,0.6,0,1.7-0.1,2.9c-0.1,1.3-0.1,2.9-0.2,4.6
		s-0.3,3.6-0.5,5.6c-0.2,2-0.4,4-0.6,6.1s-0.6,4-1,5.9c-0.4,1.7-0.8,3.3-1.5,5c-0.5,1.2-1,2.4-1.8,3.4c-0.6,0.7-1.5,1.3-2.4,1.3
		c-0.8,0-1.6-0.4-2-1.1c-0.6-0.8-1.1-1.7-1.5-2.8c-0.5-1.2-0.7-2.4-0.9-3.7c-0.2-1.4-0.4-2.7-0.6-4c-0.2-1.3-0.2-2.5-0.3-3.5
		c-0.1-1-0.1-1.8-0.1-2.4c0-3.9,0.2-7.6,0.6-11.5l-2,1.9l-7-6l-5.6,5.2l-6.9-4.5c-0.3,3.5-0.5,7-0.5,10.6c0,2.9,0.2,5.8,0.4,8.8
		c0.3,3,0.7,6.1,1.5,9c0.6,2.9,1.7,5.7,2.9,8.4c1.2,2.6,2.8,4.9,4.7,6.9c1.9,2,4.3,3.6,6.9,4.8c2.9,1.2,6.2,1.8,9.4,1.7
		c2.9,0,5.7-0.5,8.4-1.6c2.5-1,4.8-2.5,6.8-4.3c2.1-1.9,4-4,5.4-6.4C124.4,76.4,126.8,70.7,128.3,65z M68.1,23.9L49,23.5
		c-1.1,0-2.1,0.6-2.5,1.7L34.5,56.4l-8.9-29c-0.4-1.1-1.4-1.8-2.6-1.8L3.4,26.2C2.1,26.3,1,27.4,1,28.8L0.2,72.7l3.4-2.2l5.6,5.2
		l7-6l5.5,5.4v-15l6.8,24.1c0.3,1.1,1.4,1.9,2.5,1.9h4.3c1.1,0,2.1-0.7,2.5-1.7L47,56.9l-0.2,33.4c0,1.5,1.1,2.6,2.6,2.7
		c0.1,0,0.1,0,0.2,0l16.2-0.7c1.3-0.1,2.4-1.2,2.4-2.5l2.5-63.1C70.7,25.2,69.5,24,68.1,23.9C68.1,23.9,68.1,23.9,68.1,23.9z M16,75
		l-6.9,6l-5.9-5.4l-2.9,1.8L0,88.2c0,1.5,1.1,2.7,2.6,2.7h0.1l16.4-0.5c1.4,0,2.5-1.2,2.6-2.6v-7.2L16,75z M81.9,43.2l5.9-5.4l6.9,6
		l2.9-2.9c0.4-3,0.8-6,1.3-9c0.2-1.4-0.7-2.8-2.2-3c-0.1,0-0.2,0-0.3,0l-16.7-0.6c-1.3-0.1-2.5,0.8-2.7,2.1
		c-0.6,2.9-0.9,5.9-1.3,8.9L81.9,43.2z M290.6,82.9l-5.6,5.2l-8.5-5.5l-6.6,3.5l-0.1,5c0,1.5,1.2,2.6,2.6,2.6h17
		c1.4,0,2.6-1.1,2.6-2.5l0.3-6.6L290.6,82.9z M270.1,81.5l6.7-3.5l7.8,5.2l5.9-5.4l2,1.7l0.6-15.1l23-32.1c0.8-1.2,0.6-2.9-0.6-3.7
		c-0.4-0.3-0.8-0.5-1.3-0.5L298,27c-1-0.1-1.9,0.5-2.4,1.3l-11,18.8l-3.3-17.8c-0.3-1.4-1.5-2.3-2.9-2.1l-18,2.3
		c-1.5,0.2-2.5,1.5-2.3,2.9c0,0.2,0.1,0.5,0.2,0.6l12.1,31.4L270.1,81.5z M152.6,76.8l-6.9,5.9l-5.9-5.5l-4.6,3l-0.2,8
		c0,1.5,1.1,2.7,2.6,2.7c0,0,0,0,0.1,0h15.9c1.4,0,2.5-1.1,2.6-2.5l0.5-7.8L152.6,76.8z M176.2,57.2l-15.5-32.1
		c-0.5-0.9-1.5-1.6-2.5-1.5L139,24.5c-1.4,0.1-2.5,1.2-2.5,2.6l-1.2,48.4l4.9-3.2l5.6,5.2l7-6.1l4,4l1.1-19.1l12.4,32.1
		c0.5,1.1,1.5,1.7,2.7,1.7l20.2-1.8c1.3-0.1,2.3-1.2,2.4-2.5l3.1-58.3c0.1-1.5-1-2.7-2.5-2.8c-0.1,0-0.2,0-0.3,0l-16.8,0.6
		c-1.4,0-2.5,1.2-2.5,2.6L176.2,57.2z"/>
</g>
<rect id="rect129" x="-172.4" y="-133.6" class="st1" width="98.1" height="89.6"/>
<rect id="rect131" x="-133.7" y="-98.2" class="st2" width="20.6" height="18.8"/>
</svg>
